<?xml version="1.0" encoding="UTF-8"?>
<svg version="1.1" xmlns="http://www.w3.org/2000/svg" width="486" height="154" viewBox="0 0 486 154">
  <path fill="#C4A35A" d="M66.22,59.077c-6.01,2.462-16.241,5.708-21.208-0.033c-8.285-9.578,16.086-20.258,21.454-22.517 c9.893-4.162,20.476-6.964,30.746-10.039c9.52-2.851,19.069-5.615,28.667-8.193c3.074-0.826,6.157-1.629,9.263-2.328 c0.688-0.155,1.421-0.351,2.126-0.403c-1.464,0.109-0.214-1.102-1.077-0.279c-0.469,0.447-0.961,0.87-1.448,1.297 c-7.046,6.199-13.933,12.506-20.44,19.277C97.356,53.489,82.474,73.091,65.699,90.925c-9.152,9.73-18.603,19.192-28.53,28.134 c-8.13,7.323-16.708,14.725-26.403,19.905c-1.319,0.705-5.112,3.072-6.596,1.685c-1.461-1.365,1.227-5.186,1.893-6.215 c6.378-9.852,16.606-17.556,25.712-24.685c33.375-26.133,69.213-48.264,104.921-70.937c14.732-9.354,29.57-18.703,43.633-29.05 c1.78-1.31,7.917-4.75,8.063-7.425c0.149-2.736-7.013,1.716-7.559,2.078c-12.309,8.157-23.94,17.519-35.431,26.777 c-6.65,5.358-12.329,11.776-18.176,17.977c-14.867,15.766-29.534,31.725-44.053,47.812 c-11.834,13.112-24.161,26.126-34.755,40.287c-1,1.337,2.896,0.692,3.562-0.055c9.915-11.118,20.126-21.99,30.588-32.596 c7.728-7.834,15.669-15.421,24.184-22.398c9.771-8.006,19.973-16.32,31.138-22.332c0.62-0.334,1.271-0.669,1.943-0.888 c-0.958,0.312-0.682-0.52-0.865,0.072c-0.213,0.685-0.651,1.318-1.021,1.923c-1.558,2.549-3.364,4.957-5.137,7.357 c-5.339,7.229-10.992,14.233-16.708,21.166c-5.891,7.145-11.914,14.194-18.224,20.974c-2.733,2.936-5.625,5.678-8.513,8.458 c-1.066,1.027-5.569,4.499-4.951,6.488c1.046,3.365,10.586-4.554,11.31-5.225c4.256-3.948,9.172-7.283,13.865-10.677 c18.873-13.646,38.582-26.408,59.232-37.201c10.065-5.261,21.277-11.166,32.66-12.768c0.438-0.062,3.886-0.439,2.995,0.918 c-1.139,1.733-4.45,1.991-6.229,2.102c-13.041,0.817-3.426-19.83,0.089-24.161c4.977-6.133,11.432-11.247,17.522-16.215 c5.915-4.825,12.034-9.416,18.358-13.69c1.28-0.865,11.472-7.77,11.973-5.922c0.575,2.124-1.455,5.348-2.348,7.12 c-2.021,4.01-4.563,7.773-7.098,11.47c-5.737,8.37-12.14,16.328-18.977,23.822c-11.453,12.555-21.41,26.227-31.86,39.616 c-11.895,15.239-24.522,31.922-40.874,42.658c1.03,0.06,2.06,0.119,3.089,0.179c7.802-14.003,25.315-23.15,39.07-31.328 c16.248-9.66,32.334-19.75,47.575-30.945c3.187-2.34,25.038-16.761,19.476-22.716c-2.882-3.085-8.995-0.339-11.924,1.096 c-7.26,3.556-13.547,9.426-19.373,14.909c-12.527,11.787-25.715,25.53-33.503,41.054c-1.757,3.502-4.825,10.133-1.617,13.698 c3.062,3.404,10.08-0.129,13.073-1.687c10.093-5.255,18.341-13.888,26.644-21.495c8.882-8.138,17.768-16.273,26.657-24.404 c13.935-12.746,27.844-25.524,41.874-38.165c0.837-0.753,2.895-2.702,3.207-2.901c-0.907,0.137-1.815,0.273-2.723,0.41 c-0.813-0.444,0.023-1.032-1.022,0.069c-0.702,0.74-1.422,1.464-2.138,2.191c-2.626,2.664-5.276,5.302-7.924,7.943 c-6.441,6.426-12.9,12.834-19.326,19.276c-9.679,9.704-18.367,20.167-26.925,30.87c-9.264,11.586-19.64,23.475-26.534,36.698 c-1.085,2.083-1.853,5.147,1.7,4.104c2.91-0.854,5.325-3.318,7.529-5.275c34.931-31.01,64.152-68.6,101.305-97.151 c-1.102-0.065-2.203-0.13-3.304-0.196c-11.609,13.693-24.415,26.279-36.262,39.757c-14.19,16.146-28.084,32.549-42.351,48.627 c-6.426,7.242-12.915,14.438-19.671,21.375c-4.856,4.986-10.046,9.592-15.929,13.337c-4.254,2.708-10.5,6.2-15.651,4.163 c-7.164-2.834-1.925-15.072,0.197-19.727c3.749-8.22,9.647-15.448,16.208-21.582c19.271-18.014,45.136-24.123,70.436-28.23 c16.973-2.756,33.761-3.166,50.844-1.542c1.061,0.101,4.514-1.71,2.416-1.909c-16.695-1.587-33.071-1.295-49.695,1.115 c-24.417,3.539-49.123,9.167-69.42,23.85c-12.781,9.245-24.746,23.039-27.993,38.883c-1.334,6.508,1.518,11.417,8.296,11.713 c9.043,0.395,18.2-6.327,24.805-11.661c10.316-8.33,19.062-18.995,27.851-28.861c10.116-11.356,20.038-22.884,29.987-34.386 c16.136-18.653,33.554-36.175,49.491-54.974c1.104-1.301-2.743-0.626-3.304-0.196c-13.126,10.087-25.019,21.829-36.85,33.37 c-14.063,13.718-27.826,27.74-41.692,41.656c-8.677,8.708-17.21,18.577-27.224,25.808c-1.483,1.071-0.068-0.509,1.093,0.419 c-0.198-0.158,0.161-1.041,0.214-1.201c0.724-2.222,2.161-4.27,3.402-6.222c4.151-6.53,8.861-12.721,13.547-18.87 c10.146-13.315,20.463-26.977,32.213-38.942c6.979-7.108,14.074-14.104,21.132-21.134c3.16-3.147,6.319-6.295,9.464-9.458 c1.406-1.415,3.359-2.885,4.432-4.591c0.246-0.392,0.176-0.622-0.225-0.84c-0.005-0.002-0.009-0.005-0.014-0.007 c-0.718-0.393-2.094,0.01-2.723,0.409c-3.159,2.007-5.89,5.146-8.645,7.645c-6.863,6.223-13.704,12.47-20.546,18.716 c-17.521,15.997-34.946,32.098-52.512,48.044c-4.639,4.211-9.535,8.242-14.878,11.531c-2.132,1.313-6.504,4.304-8.933,2.188 c-4.048-3.526,2.233-13.759,4.048-16.825c9.372-15.835,23.389-30.31,37.325-42.151c4.049-3.44,10.095-9.249,15.728-9.638 c4.963-0.343,1.419,5.374,0.106,6.985c-9.022,11.074-22.998,19.184-34.764,26.94c-12.999,8.569-26.342,16.572-39.784,24.42 c-10.884,6.355-23.489,15.146-29.813,26.499c-0.607,1.089,2.767,0.391,3.089,0.179c17.622-11.568,31.033-29.396,43.818-45.831 c6.458-8.301,12.727-16.748,19.271-24.981c5.703-7.174,12.185-13.632,18.036-20.681c6.688-8.055,13.238-16.607,18.268-25.819 c0.945-1.731,6.24-10.521,1.297-10.869c-4.634-0.325-9.703,3.445-13.376,5.758c-7.323,4.612-14.255,9.872-20.999,15.285 c-10.693,8.583-28.633,21.713-25.612,37.706c1.288,6.821,9.769,6.35,14.823,4.701c1.085-0.354,7.355-2.875,5.307-4.998 c-2.803-2.905-10.791,0.091-13.752,0.968c-11.069,3.275-21.604,8.558-31.752,13.988c-19.841,10.615-38.783,23.106-57.007,36.283 c-4.646,3.359-9.401,6.711-13.612,10.617c-1.218,1.129-2.564,2.147-3.959,3.046c-1.996,1.286,0.301-0.028,0.143,0.865 c0.098-0.554,0.779-1.203,1.106-1.61c2.82-3.512,6.462-6.376,9.61-9.601c12.684-12.992,24.2-27.357,35.19-41.79 c2.957-3.883,6.836-8.109,8.646-12.719c1.399-3.562-8.288,1.019-8.796,1.304c-19.72,11.086-37.214,27.033-53.13,42.958 c-11.156,11.163-21.963,22.71-32.467,34.489c1.187-0.019,2.375-0.036,3.562-0.055c8.174-10.926,17.539-21.039,26.612-31.212 c12.453-13.965,25.09-27.767,37.811-41.488c8.739-9.426,17.443-18.917,26.5-28.041c8.125-8.185,18.197-14.891,27.375-21.81 c5.088-3.835,10.19-7.963,15.747-11.111c1.215-0.688-1.201-0.85-1.745-0.092c-0.427,0.595-1.011,1.084-1.553,1.567 c-2.117,1.887-4.438,3.558-6.727,5.228c-14.579,10.638-29.95,20.248-45.193,29.894C94.9,62.872,59.041,85.303,25.646,111.729 c-8.344,6.604-17.086,13.896-23.146,22.76c-1.361,1.991-4.686,7.599-0.335,8.395c5.225,0.956,11.189-2.979,15.343-5.559 c9.424-5.852,17.873-13.359,26.024-20.833C61.893,99.656,78.729,81.122,94.958,62.25c7.965-9.261,15.566-18.81,24.039-27.624 c6.326-6.581,13.177-12.518,19.943-18.621c1.919-1.731,1.516-2.617-1.104-2.311c-4.833,0.565-9.681,2.198-14.358,3.463 c-15.693,4.245-31.301,8.887-46.777,13.865c-9.151,2.943-18.147,6.422-26.248,11.673c-4.805,3.114-11.205,8.071-10.519,14.524 c1.241,11.676,21.49,5.749,27.744,3.188C70.193,59.376,67.858,58.406,66.22,59.077L66.22,59.077 M285.115,84.553c14.089-2.976,28.271-7.576,40.981-14.375c7.961-4.259,15.152-10.253,20.037-17.924 c3.766-5.913-3.794-4.235-6.919-2.908c-9.809,4.165-18.505,11.527-26.267,18.683c-9.301,8.573-17.699,18.215-25.167,28.414 c-4.837,6.606-11.247,14.928-12.242,23.321c-0.622,5.243,5.454,3.717,8.399,2.446c6.927-2.988,12.838-8.588,18.331-13.606 c7.153-6.537,13.941-13.483,21.048-20.076c13.267-12.309,26.8-24.391,40.763-35.907c1.9-1.567,3.818-3.115,5.779-4.608 c0.599-0.456,1.208-0.897,1.83-1.32c0.783-0.438,0.282-0.511-1.504-0.22c0.123,0.228-0.507,1.131-0.595,1.283 c-5.096,8.883-14.15,16.523-21.408,23.554c-16.661,16.139-31.509,34.118-45.247,52.778c-0.938,1.273,2.775,0.385,3.261,0.032 c7.223-5.234,13.47-11.695,19.141-18.538c6.088-7.348,13.003-14.067,19.921-20.621c18.159-17.203,38.189-31.142,59.749-43.714 c1.03-0.601,2.08-1.228,3.189-1.673c-2.095,0.842-1.08-0.149-2.416,1.771c-2.83,4.071-6.381,7.725-9.665,11.421 c-8.297,9.337-16.416,18.809-24.398,28.416c-10.355,12.464-21.848,24.521-35.545,33.381c-1.033,0.668-2.336,2.062-2.606,0.555 c-0.191-1.069,0.66-2.332,1.227-3.138c2.439-3.47,6.368-5.965,9.859-8.237c10.545-6.865,22.45-11.175,34.083-15.776 c18.472-7.307,37.485-14.569,54.69-24.597c2.807-1.636,9.29-4.721,9.488-8.634c0.279-5.51-11.252-1.135-13.039-0.331 c-20.884,9.394-37.457,27.8-51.855,45.087c-5.248,6.302-10.906,12.938-14.562,20.344c-1.618,3.28-0.411,5.061,3.128,3.817 c3.182-1.118,6.01-3.885,8.546-5.989c4.917-4.08,9.653-8.379,14.373-12.683c12.539-11.435,24.829-23.141,37.237-34.716 c8.726-8.138,17.35-17.249,27.219-24.034c1.684-1.158-0.489-0.727-0.793,0.001c-0.61,1.466-1.848,2.765-2.826,3.988 c-4.173,5.217-8.682,10.178-13.067,15.216c-14.599,16.771-28.812,33.869-41.838,51.901c-0.922,1.277,2.958,0.324,3.525-0.189 c6.773-6.126,12.98-12.979,19.327-19.532c9.587-9.897,18.791-20.331,29.398-29.167c2.667-2.222,5.487-4.39,8.587-5.977 c0.946-0.484,1.727-0.754,1.327,0.729c-0.388,1.439-1.626,2.643-2.665,3.636c-2.799,2.677-5.68,5.269-8.484,7.941 c-6.551,6.242-13.42,12.704-18.553,20.206c-2.54,3.711-5.482,8.932,0.748,10.108c7.34,1.384,15.851-0.816,22.966-2.403 c11.215-2.502,22.313-5.756,33.029-9.911c2.556-0.991,0.153-1.667-1.387-1.07c-10.619,4.117-21.629,7.345-32.761,9.746 c-3.281,0.708-20.572,5.389-21.864,0.021c-0.646-2.688,2.677-6.571,4.073-8.446c2.925-3.93,6.342-7.506,9.747-11.017 c5.461-5.629,11.624-10.62,16.974-16.337c1.043-1.114,3.598-4.406,1.039-5.301c-3.487-1.22-8.404,2.392-11.002,4.17 c-9.743,6.67-17.834,15.738-25.957,24.197c-6.98,7.268-13.98,14.518-21.066,21.681c-2.302,2.327-4.572,4.72-7.002,6.916 c1.175-0.063,2.351-0.126,3.525-0.189c15.303-21.185,32.35-40.893,49.435-60.634c2.444-2.824,8.124-7.522,8.773-11.479 c0.379-2.311-5.179,0.276-5.948,0.77c-9.468,6.067-17.654,15.024-25.84,22.633c-12.469,11.591-24.801,23.329-37.34,34.843 c-4.994,4.587-10.019,9.146-15.193,13.528c-1.717,1.454-3.466,2.874-5.275,4.211c-0.6,0.443-1.215,0.865-1.845,1.264 c-1.312,0.831,0.864,0.432,0.721-0.382c-0.349-1.976,2.061-5.009,3.007-6.527c2.63-4.22,5.729-8.164,8.816-12.054 c6.894-8.686,14.327-16.985,22.172-24.821c9.248-9.238,20.074-18.556,32.27-23.641c1.687-0.703,7.899-1.999,6.03,1.859 c-1.129,2.33-4.386,3.979-6.465,5.283c-17.204,10.792-37.21,17.883-56.014,25.321c-10.647,4.211-21.369,8.259-31.256,14.116 c-4.885,2.894-13.82,7.51-15.254,13.731c-1.147,4.978,7.22,0.995,8.684,0.095c7.596-4.671,14.314-10.927,20.875-16.917 c13.576-12.398,24.445-27.83,36.59-41.576c3.864-4.373,7.807-8.678,11.517-13.184c0.976-1.185,3.237-3.327,3.164-5.054 c-0.107-2.559-10.044,3.326-10.48,3.587c-9.577,5.742-19.279,11.44-28.371,17.928c-10.217,7.29-19.761,15.548-28.933,24.099 c-6.965,6.492-13.744,13.249-19.986,20.443c-6.049,6.972-12.09,13.821-19.613,19.274c1.087,0.011,2.174,0.021,3.261,0.032 c8.958-12.168,18.395-23.96,28.456-35.235c8.991-10.075,18.92-19.194,28.142-29.041c3.468-3.703,6.951-7.512,9.837-11.696 c0.748-1.084,2.092-3.152-0.223-3.029c-4.261,0.228-8.556,4.979-11.589,7.468c-16.697,13.703-32.787,28.231-48.471,43.077 c-8.916,8.44-17.306,17.774-27.738,24.399c-10.255,6.512-2.56-9.364-0.561-12.907c7.519-13.321,18.033-25.257,28.871-35.957 c5.433-5.364,11.248-10.303,17.521-14.656c3.393-2.353,6.935-4.649,10.747-6.268c2.876-1.221,1.678,1.38,0.855,2.826 c-6.759,11.879-20.55,18.381-32.738,22.998c-7.521,2.849-16.48,5.51-23.79,7.054C284.193,83.267,282.428,85.12,285.115,84.553 L285.115,84.553 M156.85,56.093c1.322,2.84,4.357,3.759,7.281,3.352c0.671-0.093,1.963-0.422,2.234-1.167 c0.275-0.756-1.286-0.615-1.6-0.572c-1.673,0.233-3.375-1.196-4.052-2.648C160.19,53.934,156.439,55.211,156.85,56.093 L156.85,56.093 M168.641,88.138c0.071-0.061,0.145-0.12,0.219-0.178c0.067-0.053,0.135-0.104,0.203-0.154 c0.039-0.028,0.078-0.057,0.117-0.084c0.246-0.175-0.362,0.232-0.104,0.068c0.084-0.054,0.172-0.103,0.26-0.149 c-0.334,0.152-0.418,0.193-0.251,0.122c-0.556,0.234-1.311,0.333-1.88,0.15c-0.129-0.036-0.218-0.114-0.264-0.236 c0.026,0.05,0.026,0.114,0.029,0.168c-0.012-0.191-0.083,0.255-0.111,0.341c-0.251,0.799,1.243,0.728,1.626,0.672 c0.694-0.1,1.971-0.436,2.219-1.224c0.127-0.404,0.275-0.977-0.107-1.296c-0.75-0.626-2.108-0.243-2.914,0.057 c-0.762,0.283-1.476,0.761-2.093,1.287c-0.201,0.172-0.489,0.438-0.406,0.746c0.081,0.301,0.466,0.404,0.725,0.443 C166.792,89.002,167.954,88.724,168.641,88.138L168.641,88.138z" />
</svg>
