<?xml version="1.0" encoding="UTF-8" standalone="no"?>
<!-- Created with Inkscape (http://www.inkscape.org/) -->

<svg
   xmlns:dc="http://purl.org/dc/elements/1.1/"
   xmlns:cc="http://creativecommons.org/ns#"
   xmlns:rdf="http://www.w3.org/1999/02/22-rdf-syntax-ns#"
   xmlns:svg="http://www.w3.org/2000/svg"
   xmlns="http://www.w3.org/2000/svg"
   xmlns:sodipodi="http://sodipodi.sourceforge.net/DTD/sodipodi-0.dtd"
   xmlns:inkscape="http://www.inkscape.org/namespaces/inkscape"
   width="264.58334mm"
   height="120.8418mm"
   viewBox="0 0 264.58334 120.8418"
   version="1.1"
   id="svg5602"
   inkscape:version="0.92.2 (5c3e80d, 2017-08-06)"
   sodipodi:docname="Bumiputera.svg">
  <defs
     id="defs5596">
    <linearGradient
       x1="0"
       y1="0"
       x2="1"
       y2="0"
       gradientUnits="userSpaceOnUse"
       gradientTransform="matrix(0.218889,18.084501,18.084501,-0.218889,43,259.44531)"
       spreadMethod="pad"
       id="linearGradient442">
      <stop
         style="stop-opacity:1;stop-color:#0070b8"
         offset="0"
         id="stop438" />
      <stop
         style="stop-opacity:1;stop-color:#27a8e0"
         offset="1"
         id="stop440" />
    </linearGradient>
  </defs>
  <sodipodi:namedview
     id="base"
     pagecolor="#ffffff"
     bordercolor="#666666"
     borderopacity="1.0"
     inkscape:pageopacity="0.0"
     inkscape:pageshadow="2"
     inkscape:zoom="1"
     inkscape:cx="558.77255"
     inkscape:cy="146.76981"
     inkscape:document-units="mm"
     inkscape:current-layer="layer1"
     showgrid="false"
     fit-margin-top="0"
     fit-margin-left="0"
     fit-margin-right="0"
     fit-margin-bottom="0"
     inkscape:window-width="1600"
     inkscape:window-height="837"
     inkscape:window-x="-8"
     inkscape:window-y="-8"
     inkscape:window-maximized="1" />
  <metadata
     id="metadata5599">
    <rdf:RDF>
      <cc:Work
         rdf:about="">
        <dc:format>image/svg+xml</dc:format>
        <dc:type
           rdf:resource="http://purl.org/dc/dcmitype/StillImage" />
        <dc:title></dc:title>
      </cc:Work>
    </rdf:RDF>
  </metadata>
  <g
     inkscape:label="Layer 1"
     inkscape:groupmode="layer"
     id="layer1"
     transform="translate(381.24561,122.16371)">
    <g
       id="g6316">
      <g
         transform="matrix(3.3689763,0,0,-3.3689763,-375.73733,-33.359871)"
         id="g330">
        <path
           inkscape:connector-curvature="0"
           id="path332"
           style="fill:#5a707f;fill-opacity:1;fill-rule:nonzero;stroke:none"
           d="M 0,0 C 0.099,-0.102 0.212,-0.205 0.332,-0.303 0.454,-0.405 0.587,-0.5 0.734,-0.582 0.88,-0.664 1.049,-0.731 1.23,-0.786 1.411,-0.837 1.617,-0.868 1.849,-0.871 2.228,-0.875 2.578,-0.788 2.891,-0.605 3.203,-0.424 3.472,-0.173 3.697,0.153 3.924,0.478 4.101,0.867 4.23,1.314 4.358,1.765 4.425,2.259 4.433,2.796 4.437,3.202 4.379,3.584 4.257,3.941 4.136,4.303 3.969,4.613 3.755,4.876 3.545,5.144 3.29,5.352 2.998,5.509 2.707,5.665 2.397,5.747 2.065,5.751 1.88,5.753 1.691,5.731 1.493,5.682 1.297,5.635 1.112,5.562 0.931,5.474 0.748,5.384 0.585,5.281 0.432,5.16 0.283,5.038 0.155,4.91 0.057,4.775 Z m -1.501,10.638 1.159,0.44 L 0.134,11.073 0.065,5.332 C 0.2,5.561 0.375,5.776 0.595,5.977 0.815,6.185 1.053,6.362 1.309,6.513 1.566,6.667 1.833,6.787 2.11,6.873 2.385,6.963 2.652,7.004 2.906,7.002 3.386,6.999 3.826,6.892 4.22,6.696 4.619,6.498 4.963,6.232 5.248,5.896 5.535,5.561 5.757,5.171 5.914,4.725 6.071,4.279 6.149,3.806 6.144,3.301 6.138,2.849 6.079,2.413 5.961,2 5.847,1.583 5.689,1.195 5.49,0.837 5.29,0.479 5.047,0.153 4.761,-0.142 4.478,-0.436 4.167,-0.687 3.826,-0.896 3.481,-1.104 3.114,-1.266 2.723,-1.377 2.334,-1.489 1.925,-1.544 1.503,-1.538 c -0.607,0.005 -1.179,0.096 -1.717,0.259 -0.54,0.163 -1.015,0.417 -1.421,0.76 z" />
      </g>
      <g
         transform="matrix(3.3689763,0,0,-3.3689763,-345.31445,-56.136846)"
         id="g334">
        <path
           inkscape:connector-curvature="0"
           id="path336"
           style="fill:#5a707f;fill-opacity:1;fill-rule:nonzero;stroke:none"
           d="m 0,0 -0.07,-5.841 c -0.003,-0.204 0.042,-0.401 0.133,-0.582 0.09,-0.181 0.22,-0.338 0.381,-0.475 0.161,-0.134 0.353,-0.24 0.57,-0.323 0.218,-0.08 0.449,-0.126 0.703,-0.126 0.161,-0.003 0.335,0.028 0.519,0.095 0.184,0.067 0.366,0.161 0.542,0.283 0.177,0.118 0.343,0.258 0.503,0.418 0.157,0.155 0.289,0.329 0.393,0.511 l 0.071,5.995 1.63,-0.02 -0.1,-8.213 -1.63,0.02 0.019,1.539 C 3.519,-6.955 3.336,-7.173 3.116,-7.38 2.899,-7.586 2.662,-7.767 2.407,-7.917 2.151,-8.073 1.89,-8.187 1.625,-8.278 1.354,-8.36 1.102,-8.403 0.863,-8.399 c -0.358,0.003 -0.694,0.074 -1.008,0.212 -0.314,0.139 -0.588,0.326 -0.818,0.558 -0.232,0.234 -0.416,0.503 -0.546,0.813 -0.132,0.311 -0.197,0.641 -0.193,0.995 l 0.071,5.842 z" />
      </g>
      <g
         transform="matrix(3.3689763,0,0,-3.3689763,-321.81722,-55.852167)"
         id="g338">
        <path
           inkscape:connector-curvature="0"
           id="path340"
           style="fill:#5a707f;fill-opacity:1;fill-rule:nonzero;stroke:none"
           d="m 0,0 1.627,-0.02 -0.02,-1.536 c 0.213,0.226 0.453,0.44 0.715,0.64 0.266,0.201 0.539,0.378 0.818,0.535 0.281,0.153 0.562,0.275 0.841,0.363 0.283,0.089 0.548,0.132 0.8,0.128 0.241,-0.004 0.49,-0.051 0.736,-0.141 0.246,-0.087 0.474,-0.213 0.68,-0.37 0.212,-0.157 0.393,-0.344 0.542,-0.557 0.151,-0.211 0.247,-0.445 0.289,-0.692 0.139,0.235 0.332,0.457 0.572,0.668 0.24,0.208 0.507,0.389 0.796,0.538 0.294,0.153 0.601,0.273 0.921,0.361 0.326,0.087 0.642,0.13 0.952,0.126 0.312,-0.004 0.602,-0.074 0.874,-0.216 0.271,-0.141 0.507,-0.328 0.707,-0.562 0.204,-0.236 0.359,-0.509 0.473,-0.825 0.114,-0.315 0.168,-0.648 0.161,-1.002 l -0.068,-5.8 -1.635,0.02 0.067,5.564 c 0.002,0.228 -0.035,0.448 -0.113,0.656 -0.076,0.208 -0.178,0.389 -0.309,0.546 -0.13,0.158 -0.284,0.279 -0.462,0.377 -0.177,0.095 -0.363,0.142 -0.565,0.146 -0.223,0 -0.453,-0.028 -0.685,-0.087 C 8.48,-1.199 8.26,-1.277 8.05,-1.383 7.84,-1.485 7.647,-1.611 7.473,-1.751 7.297,-1.89 7.158,-2.04 7.054,-2.195 l -0.073,-6.104 -1.631,0.02 0.069,5.568 c 0.002,0.228 -0.036,0.448 -0.11,0.656 -0.08,0.208 -0.183,0.389 -0.318,0.546 C 4.854,-1.352 4.696,-1.226 4.519,-1.132 4.343,-1.037 4.154,-0.992 3.956,-0.99 3.745,-0.986 3.531,-1.014 3.307,-1.079 3.087,-1.135 2.869,-1.222 2.654,-1.326 2.44,-1.428 2.246,-1.552 2.063,-1.688 1.879,-1.823 1.725,-1.973 1.602,-2.13 L 1.527,-8.232 -0.1,-8.213 Z" />
      </g>
      <g
         transform="matrix(3.3689763,0,0,-3.3689763,-274.15151,-54.269758)"
         id="g342">
        <path
           inkscape:connector-curvature="0"
           id="path344"
           style="fill:#5a707f;fill-opacity:1;fill-rule:nonzero;stroke:none"
           d="M 0,0 1.151,0.454 1.629,0.446 1.527,-7.932 -0.097,-7.916 Z M 0.841,3.657 C 0.965,3.653 1.089,3.633 1.202,3.588 1.315,3.542 1.415,3.479 1.5,3.405 1.582,3.331 1.648,3.244 1.696,3.142 1.747,3.044 1.771,2.939 1.771,2.828 1.769,2.713 1.741,2.607 1.689,2.509 1.637,2.411 1.569,2.324 1.484,2.253 1.401,2.179 1.3,2.125 1.183,2.081 1.068,2.038 0.947,2.018 0.819,2.02 0.694,2.022 0.574,2.045 0.46,2.089 0.35,2.136 0.251,2.193 0.169,2.268 0.084,2.344 0.02,2.431 -0.031,2.529 c -0.052,0.102 -0.073,0.204 -0.073,0.32 0.002,0.112 0.027,0.218 0.081,0.317 0.053,0.1 0.119,0.185 0.206,0.257 0.085,0.073 0.183,0.132 0.296,0.175 0.114,0.039 0.232,0.059 0.362,0.059" />
      </g>
      <g
         transform="matrix(3.3689763,0,0,-3.3689763,-257.79519,-34.883321)"
         id="g346">
        <path
           inkscape:connector-curvature="0"
           id="path348"
           style="fill:#5a707f;fill-opacity:1;fill-rule:nonzero;stroke:none"
           d="m 0,0 c -0.002,-0.248 0.049,-0.48 0.154,-0.7 0.103,-0.22 0.253,-0.412 0.443,-0.573 0.193,-0.165 0.423,-0.295 0.69,-0.394 0.272,-0.093 0.566,-0.145 0.886,-0.149 0.307,-0.003 0.596,0.067 0.865,0.22 0.267,0.154 0.503,0.372 0.709,0.653 0.207,0.283 0.367,0.625 0.485,1.018 0.122,0.39 0.183,0.833 0.189,1.314 C 4.429,2 4.383,2.527 4.283,2.98 4.179,3.43 4.036,3.81 3.847,4.114 3.659,4.415 3.436,4.643 3.179,4.79 2.922,4.943 2.635,5.021 2.327,5.025 2.086,5.03 1.857,4.992 1.639,4.921 1.424,4.853 1.219,4.754 1.024,4.632 0.832,4.515 0.652,4.377 0.487,4.22 0.323,4.059 0.175,3.894 0.043,3.721 Z M -1.556,6.012 0.076,5.993 0.054,4.318 C 0.218,4.526 0.405,4.735 0.607,4.947 0.81,5.163 1.038,5.359 1.283,5.533 1.529,5.713 1.8,5.855 2.099,5.965 2.389,6.077 2.714,6.13 3.067,6.125 3.549,6.118 3.991,6.012 4.383,5.804 4.781,5.595 5.114,5.314 5.391,4.958 5.667,4.609 5.879,4.197 6.026,3.727 6.175,3.257 6.245,2.755 6.238,2.226 6.23,1.548 6.128,0.923 5.934,0.35 5.738,-0.22 5.465,-0.713 5.109,-1.126 4.761,-1.543 4.334,-1.863 3.838,-2.091 3.342,-2.319 2.784,-2.429 2.167,-2.425 1.937,-2.421 1.726,-2.409 1.533,-2.38 1.34,-2.354 1.155,-2.316 0.979,-2.264 0.804,-2.217 0.632,-2.152 0.474,-2.075 0.311,-1.997 0.147,-1.9 -0.022,-1.791 l -0.044,-3.892 -1.629,0.02 z" />
      </g>
      <g
         transform="matrix(3.3689763,0,0,-3.3689763,-227.04858,-54.707052)"
         id="g350">
        <path
           inkscape:connector-curvature="0"
           id="path352"
           style="fill:#5a707f;fill-opacity:1;fill-rule:nonzero;stroke:none"
           d="m 0,0 -0.071,-5.841 c 0,-0.204 0.044,-0.401 0.135,-0.582 0.092,-0.183 0.217,-0.338 0.38,-0.475 0.165,-0.134 0.352,-0.242 0.57,-0.325 0.217,-0.078 0.452,-0.123 0.703,-0.123 0.164,-0.004 0.336,0.027 0.521,0.094 0.182,0.067 0.365,0.161 0.54,0.281 0.179,0.12 0.346,0.259 0.503,0.421 0.157,0.154 0.289,0.328 0.396,0.51 l 0.072,5.995 1.629,-0.022 -0.102,-8.212 -1.627,0.021 0.019,1.537 C 3.521,-6.956 3.34,-7.173 3.122,-7.381 2.9,-7.586 2.666,-7.767 2.409,-7.916 2.156,-8.073 1.894,-8.188 1.625,-8.278 1.356,-8.36 1.103,-8.404 0.863,-8.404 c -0.356,0.008 -0.692,0.079 -1.004,0.216 -0.32,0.14 -0.591,0.327 -0.823,0.559 -0.232,0.232 -0.414,0.503 -0.545,0.813 -0.131,0.311 -0.194,0.64 -0.19,0.994 l 0.071,5.84 z" />
      </g>
      <g
         transform="matrix(3.3689763,0,0,-3.3689763,-189.10481,-30.104429)"
         id="g354">
        <path
           inkscape:connector-curvature="0"
           id="path356"
           style="fill:#5a707f;fill-opacity:1;fill-rule:nonzero;stroke:none"
           d="m 0,0 c -0.227,-0.377 -0.519,-0.668 -0.883,-0.885 -0.365,-0.214 -0.811,-0.318 -1.344,-0.314 -0.274,0.004 -0.512,0.055 -0.711,0.15 -0.204,0.093 -0.367,0.223 -0.497,0.393 -0.129,0.171 -0.226,0.373 -0.287,0.613 -0.061,0.229 -0.088,0.49 -0.084,0.777 l 0.069,5.788 -1.424,0.019 0.003,0.402 c 0.462,-0.004 0.837,0.075 1.137,0.236 0.297,0.161 0.541,0.383 0.735,0.664 0.193,0.281 0.344,0.605 0.457,0.978 0.108,0.37 0.21,0.767 0.294,1.183 L -2.068,9.999 -2.101,7.19 -0.26,7.167 -0.267,6.479 -2.108,6.503 -2.18,0.715 c -10e-4,-0.124 0.02,-0.24 0.065,-0.346 0.044,-0.108 0.106,-0.202 0.183,-0.281 0.079,-0.081 0.173,-0.144 0.282,-0.191 0.108,-0.047 0.226,-0.07 0.349,-0.073 0.18,-0.001 0.347,0.042 0.499,0.129 0.153,0.086 0.286,0.196 0.399,0.326 z" />
      </g>
      <g
         transform="matrix(3.3689763,0,0,-3.3689763,-168.90878,-45.116926)"
         id="g358">
        <path
           inkscape:connector-curvature="0"
           id="path360"
           style="fill:#5a707f;fill-opacity:1;fill-rule:nonzero;stroke:none"
           d="M 0,0 C 0.004,0.309 -0.045,0.601 -0.153,0.87 -0.258,1.137 -0.405,1.371 -0.596,1.569 -0.784,1.768 -1.006,1.925 -1.264,2.039 -1.52,2.155 -1.794,2.216 -2.091,2.22 -2.336,2.222 -2.571,2.169 -2.8,2.057 -3.028,1.949 -3.231,1.799 -3.409,1.606 -3.586,1.415 -3.735,1.187 -3.855,0.923 -3.972,0.656 -4.043,0.367 -4.073,0.055 Z m -1.696,-5.732 c -0.558,0.006 -1.079,0.116 -1.56,0.332 -0.486,0.216 -0.908,0.504 -1.267,0.869 -0.362,0.365 -0.643,0.786 -0.851,1.273 -0.205,0.484 -0.303,1.002 -0.296,1.55 0.007,0.659 0.107,1.266 0.31,1.826 0.202,0.557 0.482,1.037 0.837,1.442 0.355,0.404 0.786,0.719 1.285,0.943 0.501,0.22 1.052,0.33 1.657,0.322 C -1.04,2.817 -0.547,2.719 -0.101,2.522 0.347,2.33 0.73,2.071 1.049,1.749 1.365,1.426 1.609,1.055 1.784,0.634 1.957,0.214 2.042,-0.224 2.035,-0.684 l -6.126,0.075 c -0.006,-0.551 0.061,-1.061 0.193,-1.537 0.139,-0.472 0.332,-0.88 0.585,-1.226 0.251,-0.346 0.552,-0.615 0.907,-0.814 0.355,-0.198 0.744,-0.3 1.167,-0.306 0.359,-0.004 0.697,0.051 1.027,0.161 0.328,0.11 0.624,0.258 0.892,0.44 0.271,0.185 0.494,0.393 0.687,0.633 0.184,0.24 0.323,0.487 0.401,0.743 L 2.231,-2.726 C 2.109,-3.148 1.915,-3.545 1.646,-3.908 1.38,-4.275 1.07,-4.594 0.719,-4.865 0.367,-5.136 -0.018,-5.353 -0.437,-5.505 -0.855,-5.661 -1.273,-5.738 -1.696,-5.732" />
      </g>
      <g
         transform="matrix(3.3689763,0,0,-3.3689763,-157.0746,-53.861776)"
         id="g362">
        <path
           inkscape:connector-curvature="0"
           id="path364"
           style="fill:#5a707f;fill-opacity:1;fill-rule:nonzero;stroke:none"
           d="M 0,0 1.619,-0.022 1.602,-1.574 c 0.16,0.23 0.333,0.444 0.518,0.652 0.187,0.208 0.38,0.389 0.583,0.547 0.199,0.152 0.405,0.274 0.619,0.365 0.211,0.088 0.429,0.134 0.647,0.129 0.183,0 0.345,-0.031 0.497,-0.086 0.151,-0.055 0.286,-0.13 0.398,-0.22 C 4.979,-0.277 5.07,-0.38 5.132,-0.504 5.197,-0.623 5.228,-0.751 5.228,-0.883 5.224,-1.146 5.14,-1.346 4.972,-1.48 4.804,-1.613 4.572,-1.677 4.277,-1.674 4.093,-1.672 3.947,-1.649 3.839,-1.61 3.729,-1.574 3.631,-1.527 3.541,-1.48 3.454,-1.427 3.366,-1.382 3.273,-1.343 3.181,-1.304 3.065,-1.288 2.927,-1.284 2.821,-1.284 2.713,-1.311 2.603,-1.374 2.491,-1.437 2.381,-1.523 2.271,-1.637 2.162,-1.751 2.047,-1.885 1.933,-2.042 1.818,-2.193 1.703,-2.362 1.59,-2.545 l -0.069,-5.69 -1.621,0.02 z" />
      </g>
      <g
         transform="matrix(3.3689763,0,0,-3.3689763,-122.23501,-41.897529)"
         id="g366">
        <path
           inkscape:connector-curvature="0"
           id="path368"
           style="fill:#5a707f;fill-opacity:1;fill-rule:nonzero;stroke:none"
           d="m 0,0 c -0.233,-0.074 -0.479,-0.157 -0.732,-0.251 -0.255,-0.095 -0.502,-0.201 -0.748,-0.314 -0.244,-0.118 -0.476,-0.248 -0.696,-0.384 -0.218,-0.139 -0.415,-0.284 -0.581,-0.441 -0.169,-0.156 -0.306,-0.321 -0.402,-0.498 -0.1,-0.178 -0.147,-0.363 -0.153,-0.56 -0.001,-0.197 0.034,-0.389 0.107,-0.57 0.071,-0.18 0.166,-0.341 0.287,-0.475 0.121,-0.139 0.263,-0.248 0.42,-0.328 0.163,-0.08 0.327,-0.12 0.501,-0.124 0.183,0 0.358,0.02 0.524,0.065 0.166,0.045 0.327,0.108 0.484,0.19 0.157,0.079 0.314,0.169 0.471,0.281 0.156,0.106 0.319,0.223 0.482,0.342 z m 1.579,-4.808 -1.637,0.022 0.012,1.12 c -0.192,-0.143 -0.387,-0.291 -0.573,-0.44 -0.189,-0.154 -0.39,-0.291 -0.609,-0.417 -0.219,-0.125 -0.459,-0.226 -0.722,-0.3 -0.263,-0.074 -0.57,-0.113 -0.913,-0.108 -0.323,0.004 -0.614,0.059 -0.873,0.169 -0.259,0.108 -0.478,0.255 -0.658,0.44 -0.185,0.182 -0.32,0.405 -0.414,0.656 -0.091,0.248 -0.138,0.522 -0.136,0.81 0.006,0.353 0.076,0.671 0.222,0.951 0.143,0.28 0.337,0.532 0.582,0.754 0.247,0.22 0.53,0.417 0.858,0.586 0.324,0.169 0.671,0.318 1.032,0.452 0.365,0.133 0.74,0.253 1.127,0.357 0.384,0.098 0.761,0.196 1.13,0.283 L 0.013,1.04 c 0.004,0.371 -0.03,0.685 -0.1,0.945 C -0.158,2.241 -0.26,2.452 -0.396,2.609 -0.533,2.771 -0.698,2.887 -0.895,2.959 -1.087,3.03 -1.307,3.065 -1.553,3.069 -1.828,3.071 -2.054,3.038 -2.227,2.971 -2.403,2.9 -2.54,2.808 -2.64,2.692 -2.741,2.574 -2.811,2.444 -2.85,2.293 -2.885,2.144 -2.902,1.993 -2.905,1.839 -2.907,1.694 -2.92,1.559 -2.946,1.427 -2.97,1.295 -3.013,1.179 -3.076,1.081 -3.139,0.981 -3.225,0.904 -3.327,0.841 -3.433,0.782 -3.565,0.755 -3.732,0.755 c -0.125,0 -0.242,0.027 -0.345,0.078 -0.103,0.047 -0.193,0.118 -0.268,0.205 -0.077,0.09 -0.134,0.188 -0.173,0.306 -0.039,0.12 -0.058,0.248 -0.058,0.384 0.003,0.269 0.097,0.524 0.279,0.756 0.18,0.232 0.423,0.432 0.727,0.601 0.301,0.165 0.656,0.295 1.057,0.389 0.404,0.094 0.828,0.142 1.272,0.134 C -0.698,3.604 -0.244,3.545 0.127,3.435 0.499,3.325 0.793,3.176 1.025,2.985 1.25,2.791 1.412,2.561 1.512,2.292 1.61,2.016 1.657,1.72 1.654,1.394 Z" />
      </g>
      <g
         transform="matrix(3.3689763,0,0,-3.3689763,-250.98815,-7.3456465)"
         id="g370">
        <path
           inkscape:connector-curvature="0"
           id="path372"
           style="fill:#5a707f;fill-opacity:1;fill-rule:nonzero;stroke:none"
           d="M 0,0 C 0.112,-0.094 0.264,-0.149 0.459,-0.153 1,-0.161 1.441,0.546 1.45,1.198 1.453,1.464 1.346,1.761 1,1.764 0.652,1.768 0.264,1.383 0.129,0.708 Z m -1.054,-1.78 0.606,2.987 C -0.385,1.55 -0.315,2 -0.271,2.291 L 0.355,2.283 0.283,1.795 H 0.294 C 0.542,2.134 0.907,2.325 1.275,2.325 1.901,2.316 2.182,1.808 2.176,1.246 2.163,0.232 1.458,-0.699 0.472,-0.688 0.206,-0.684 -0.002,-0.617 -0.1,-0.556 h -0.015 l -0.251,-1.232 z" />
      </g>
      <g
         transform="matrix(3.3689763,0,0,-3.3689763,-242.98174,-5.1760246)"
         id="g374">
        <path
           inkscape:connector-curvature="0"
           id="path376"
           style="fill:#5a707f;fill-opacity:1;fill-rule:nonzero;stroke:none"
           d="m 0,0 0.362,1.776 c 0.08,0.409 0.126,0.852 0.16,1.108 L 1.123,2.878 C 1.101,2.684 1.083,2.479 1.048,2.271 H 1.069 C 1.27,2.654 1.586,2.935 1.977,2.931 2.03,2.931 2.083,2.927 2.13,2.923 L 1.988,2.248 C 1.951,2.255 1.904,2.255 1.857,2.255 1.364,2.263 1.044,1.768 0.922,1.151 L 0.688,-0.008 Z" />
      </g>
      <g
         transform="matrix(3.3689763,0,0,-3.3689763,-233.6332,-8.921659)"
         id="g378">
        <path
           inkscape:connector-curvature="0"
           id="path380"
           style="fill:#5a707f;fill-opacity:1;fill-rule:nonzero;stroke:none"
           d="M 0,0 C -0.004,-0.399 0.2,-0.678 0.558,-0.684 1.074,-0.692 1.426,0.016 1.432,0.593 1.436,0.888 1.302,1.259 0.888,1.265 0.338,1.271 0.005,0.542 0,0 M 2.146,0.592 C 2.134,-0.396 1.439,-1.23 0.456,-1.218 -0.277,-1.21 -0.721,-0.699 -0.713,-0.01 -0.7,0.971 -0.01,1.811 0.976,1.799 1.756,1.788 2.154,1.226 2.146,0.592" />
      </g>
      <g
         transform="matrix(3.3689763,0,0,-3.3689763,-222.74503,-14.666097)"
         id="g382">
        <path
           inkscape:connector-curvature="0"
           id="path384"
           style="fill:#5a707f;fill-opacity:1;fill-rule:nonzero;stroke:none"
           d="M 0,0 0.167,-1.438 C 0.199,-1.784 0.226,-2.004 0.241,-2.192 H 0.26 c 0.072,0.184 0.159,0.391 0.323,0.731 l 0.735,1.445 0.767,-0.009 -1.643,-2.869 -0.695,0.006 -0.46,2.896 z" />
      </g>
      <g
         transform="matrix(3.3689763,0,0,-3.3689763,-210.95363,-13.006198)"
         id="g386">
        <path
           inkscape:connector-curvature="0"
           id="path388"
           style="fill:#5a707f;fill-opacity:1;fill-rule:nonzero;stroke:none"
           d="m 0,0 c -0.439,0.003 -0.724,-0.375 -0.812,-0.725 0.711,-0.016 1.171,0.072 1.174,0.424 C 0.364,-0.12 0.215,-0.002 0,0 m 0.626,-2.281 c -0.285,-0.146 -0.672,-0.224 -1.022,-0.22 -0.801,0.012 -1.181,0.506 -1.17,1.214 0.009,0.872 0.66,1.815 1.658,1.801 0.569,-0.005 0.929,-0.337 0.923,-0.823 -0.009,-0.743 -0.79,-0.97 -1.906,-0.933 -0.012,-0.1 0.008,-0.297 0.073,-0.41 0.108,-0.197 0.316,-0.299 0.589,-0.303 0.326,-0.004 0.588,0.075 0.8,0.181 z" />
      </g>
      <g
         transform="matrix(3.3689763,0,0,-3.3689763,-207.10256,-4.7367122)"
         id="g390">
        <path
           inkscape:connector-curvature="0"
           id="path392"
           style="fill:#5a707f;fill-opacity:1;fill-rule:nonzero;stroke:none"
           d="M 0,0 0.397,1.991 C 0.473,2.334 0.518,2.635 0.558,2.887 L 1.175,2.876 1.104,2.362 H 1.115 C 1.383,2.745 1.756,2.936 2.161,2.932 2.576,2.928 2.892,2.673 2.886,2.126 2.884,1.997 2.858,1.794 2.828,1.653 L 2.493,-0.029 1.798,-0.021 2.126,1.607 C 2.146,1.714 2.165,1.839 2.167,1.949 2.17,2.197 2.082,2.366 1.81,2.37 1.495,2.374 1.086,2 0.955,1.325 L 0.687,-0.007 Z" />
      </g>
      <g
         transform="matrix(3.3689763,0,0,-3.3689763,-190.15758,-8.3920527)"
         id="g394">
        <path
           inkscape:connector-curvature="0"
           id="path396"
           style="fill:#5a707f;fill-opacity:1;fill-rule:nonzero;stroke:none"
           d="M 0,0 C -0.006,-0.397 0.198,-0.68 0.554,-0.684 1.072,-0.687 1.424,0.015 1.43,0.593 1.436,0.892 1.3,1.261 0.888,1.265 0.335,1.273 0.008,0.542 0,0 M 2.141,0.593 C 2.133,-0.393 1.44,-1.228 0.453,-1.216 -0.275,-1.208 -0.723,-0.699 -0.715,-0.008 -0.702,0.971 -0.01,1.811 0.974,1.799 1.755,1.79 2.153,1.228 2.141,0.593" />
      </g>
      <g
         transform="matrix(3.3689763,0,0,-3.3689763,-179.27581,-14.142889)"
         id="g398">
        <path
           inkscape:connector-curvature="0"
           id="path400"
           style="fill:#5a707f;fill-opacity:1;fill-rule:nonzero;stroke:none"
           d="m 0,0 0.166,-1.44 c 0.035,-0.346 0.062,-0.563 0.076,-0.754 h 0.019 c 0.072,0.182 0.159,0.392 0.322,0.731 l 0.737,1.445 0.764,-0.007 -1.642,-2.872 -0.694,0.007 -0.46,2.898 z" />
      </g>
      <g
         transform="matrix(3.3689763,0,0,-3.3689763,-167.49416,-12.483)"
         id="g402">
        <path
           inkscape:connector-curvature="0"
           id="path404"
           style="fill:#5a707f;fill-opacity:1;fill-rule:nonzero;stroke:none"
           d="M 0,0 C -0.432,0.004 -0.723,-0.377 -0.812,-0.727 -0.098,-0.743 0.36,-0.653 0.366,-0.303 0.367,-0.12 0.222,-0.004 0,0 m 0.632,-2.281 c -0.286,-0.148 -0.674,-0.226 -1.025,-0.222 -0.799,0.012 -1.178,0.506 -1.171,1.216 0.012,0.87 0.663,1.813 1.659,1.802 0.572,-0.008 0.928,-0.338 0.923,-0.826 -0.01,-0.74 -0.79,-0.97 -1.906,-0.935 -0.012,-0.098 0.009,-0.293 0.075,-0.408 0.109,-0.197 0.316,-0.299 0.588,-0.303 0.327,-0.004 0.589,0.075 0.799,0.179 z" />
      </g>
      <g
         transform="matrix(3.3689763,0,0,-3.3689763,-163.63325,-4.2151947)"
         id="g406">
        <path
           inkscape:connector-curvature="0"
           id="path408"
           style="fill:#5a707f;fill-opacity:1;fill-rule:nonzero;stroke:none"
           d="M 0,0 0.359,1.774 C 0.442,2.183 0.489,2.627 0.52,2.886 L 1.122,2.878 C 1.102,2.682 1.082,2.478 1.051,2.273 L 1.069,2.271 C 1.267,2.654 1.587,2.936 1.978,2.933 2.03,2.932 2.084,2.926 2.131,2.926 L 1.986,2.25 C 1.951,2.256 1.903,2.258 1.856,2.258 1.363,2.264 1.043,1.766 0.923,1.149 L 0.689,-0.008 Z" />
      </g>
      <g
         transform="matrix(3.3689763,0,0,-3.3689763,-148.35128,-16.268381)"
         id="g410">
        <path
           inkscape:connector-curvature="0"
           id="path412"
           style="fill:#5a707f;fill-opacity:1;fill-rule:nonzero;stroke:none"
           d="m 0,0 -0.146,-0.741 0.649,-0.008 -0.112,-0.532 -0.648,0.008 -0.24,-1.161 c -0.031,-0.136 -0.057,-0.285 -0.059,-0.409 -0.002,-0.161 0.069,-0.261 0.251,-0.263 0.085,-0.002 0.17,0.003 0.239,0.014 l -0.071,-0.539 c -0.1,-0.041 -0.287,-0.057 -0.451,-0.055 -0.477,0.006 -0.681,0.269 -0.677,0.603 0.002,0.16 0.022,0.319 0.064,0.533 l 0.267,1.285 -0.384,0.006 0.104,0.532 0.387,-0.003 0.116,0.534 z" />
      </g>
      <g
         transform="matrix(3.3689763,0,0,-3.3689763,-144.60392,-16.362036)"
         id="g414">
        <path
           inkscape:connector-curvature="0"
           id="path416"
           style="fill:#5a707f;fill-opacity:1;fill-rule:nonzero;stroke:none"
           d="M 0,0 C 0.004,0.244 0.196,0.413 0.42,0.413 0.636,0.409 0.788,0.259 0.784,0.039 0.773,-0.216 0.583,-0.375 0.344,-0.372 0.138,-0.37 -0.002,-0.218 0,0 m -0.703,-3.667 0.585,2.885 0.69,-0.008 -0.587,-2.884 z" />
      </g>
      <g
         transform="matrix(3.3689763,0,0,-3.3689763,-142.19545,-3.957129)"
         id="g418">
        <path
           inkscape:connector-curvature="0"
           id="path420"
           style="fill:#5a707f;fill-opacity:1;fill-rule:nonzero;stroke:none"
           d="M 0,0 0.393,1.988 C 0.459,2.334 0.508,2.633 0.547,2.884 L 1.144,2.876 1.071,2.374 H 1.085 C 1.357,2.756 1.722,2.933 2.1,2.931 2.551,2.925 2.751,2.629 2.771,2.326 3.038,2.719 3.399,2.908 3.804,2.908 4.195,2.904 4.501,2.644 4.496,2.13 4.494,2.006 4.469,1.792 4.443,1.634 L 4.107,-0.051 3.437,-0.043 3.755,1.568 C 3.78,1.68 3.798,1.815 3.801,1.929 3.802,2.179 3.703,2.346 3.454,2.35 3.134,2.352 2.778,1.961 2.659,1.35 L 2.386,-0.028 1.716,-0.02 2.049,1.613 C 2.067,1.729 2.086,1.845 2.089,1.953 2.091,2.165 2.03,2.366 1.745,2.37 1.425,2.374 1.049,1.939 0.936,1.354 L 0.67,-0.008 Z" />
      </g>
      <g
         transform="matrix(3.3689763,0,0,-3.3689763,-120.46361,-11.912291)"
         id="g422">
        <path
           inkscape:connector-curvature="0"
           id="path424"
           style="fill:#5a707f;fill-opacity:1;fill-rule:nonzero;stroke:none"
           d="m 0,0 c -0.433,0.004 -0.723,-0.377 -0.81,-0.727 0.712,-0.014 1.172,0.075 1.175,0.425 C 0.367,-0.118 0.222,-0.001 0,0 m 0.631,-2.283 c -0.286,-0.143 -0.672,-0.221 -1.024,-0.218 -0.799,0.008 -1.181,0.507 -1.171,1.212 0.01,0.875 0.663,1.816 1.66,1.804 0.571,-0.008 0.927,-0.34 0.922,-0.825 -0.01,-0.739 -0.788,-0.971 -1.906,-0.934 -0.01,-0.097 0.008,-0.297 0.073,-0.41 0.11,-0.195 0.316,-0.299 0.589,-0.303 0.328,-0.003 0.59,0.075 0.798,0.181 z" />
      </g>
      <g
         id="g426"
         transform="matrix(3.3689763,0,0,-3.3689763,-416.5895,812.85523)">
        <g
           id="g428">
          <g
             id="g434">
            <g
               id="g436">
              <path
                 inkscape:connector-curvature="0"
                 id="path444"
                 style="fill:url(#linearGradient442);stroke:none"
                 d="m 43.28,277.538 c -1.235,0 -2.236,-0.991 -2.253,-2.224 v 0 c -0.015,-1.246 0.981,-2.263 2.227,-2.283 v 0 c 1.24,-0.011 2.262,0.983 2.277,2.229 v 0 c 0.012,1.243 -0.982,2.262 -2.22,2.278 v 0 z m -7.003,-0.916 c -0.289,-0.211 -0.496,-0.53 -0.552,-0.915 v 0 c -0.057,-0.381 0.045,-0.751 0.255,-1.037 v 0 l 5.319,-7.141 0.261,-0.353 c 0.354,-0.507 0.94,-0.778 1.609,-0.789 v 0 h 0.004 0.003 c 0.669,-0.005 1.261,0.251 1.626,0.75 v 0 l 0.269,0.346 5.487,7.012 c 0.219,0.281 0.333,0.646 0.282,1.031 v 0 c -0.047,0.385 -0.247,0.708 -0.526,0.928 v 0 c -0.281,0.218 -0.648,0.329 -1.03,0.285 v 0 c -0.357,-0.046 -0.662,-0.22 -0.88,-0.466 v 0 l -2.736,-3.114 c -0.592,-0.669 -1.461,-1.086 -2.424,-1.079 v 0 c -0.967,0.016 -1.828,0.455 -2.405,1.137 v 0 l -2.657,3.174 c -0.214,0.255 -0.518,0.437 -0.868,0.49 v 0 c -0.067,0.009 -0.14,0.017 -0.208,0.017 v 0 c -0.304,0 -0.596,-0.103 -0.829,-0.276 m -3.548,-2.617 c -0.287,-0.215 -0.484,-0.537 -0.54,-0.919 v 0 c -0.05,-0.357 0.039,-0.697 0.225,-0.975 v 0 l 2.295,-3.442 c 0.495,-0.751 0.67,-1.698 0.413,-2.626 v 0 c -0.261,-0.926 -0.911,-1.646 -1.719,-2.028 v 0 l -3.759,-1.745 c -0.297,-0.136 -0.548,-0.383 -0.694,-0.714 v 0 c -0.153,-0.349 -0.153,-0.732 -0.02,-1.065 v 0 c 0.135,-0.333 0.39,-0.612 0.743,-0.767 v 0 c 0.354,-0.158 0.738,-0.151 1.071,-0.022 v 0 l 8.276,3.285 0.403,0.161 c 0.583,0.213 1,0.708 1.181,1.344 v 0 c 0,0.004 0,0.008 0.004,0.012 v 0 0.004 c 0.175,0.645 0.079,1.281 -0.307,1.764 v 0 l -0.259,0.35 -5.359,7.117 c -0.212,0.282 -0.54,0.485 -0.92,0.538 v 0 c -0.063,0.008 -0.131,0.011 -0.195,0.011 v 0 c -0.311,0 -0.602,-0.106 -0.839,-0.283 m 20.039,0.04 c -0.382,-0.042 -0.709,-0.236 -0.934,-0.514 v 0 l -5.523,-6.985 -0.273,-0.342 c -0.397,-0.474 -0.507,-1.109 -0.346,-1.755 v 0 -0.008 c 0,-0.004 0,-0.004 0.002,-0.007 v 0 c 0.169,-0.646 0.57,-1.148 1.152,-1.372 v 0 l 0.396,-0.173 8.195,-3.486 c 0.329,-0.137 0.716,-0.153 1.07,-0.006 v 0 c 0.356,0.148 0.618,0.421 0.762,0.753 v 0 c 0.136,0.328 0.151,0.711 0.003,1.065 v 0 c -0.136,0.334 -0.38,0.585 -0.678,0.73 v 0 l -3.71,1.834 c -0.8,0.402 -1.431,1.138 -1.671,2.068 v 0 c -0.235,0.938 -0.035,1.883 0.471,2.618 v 0 l 2.386,3.387 c 0.189,0.267 0.285,0.605 0.246,0.967 v 0 c -0.045,0.38 -0.242,0.712 -0.518,0.931 v 0 c -0.243,0.193 -0.546,0.306 -0.867,0.306 v 0 c -0.054,0 -0.108,-0.003 -0.163,-0.011 m -22.9,-6.525 c -0.335,-1.201 0.359,-2.439 1.556,-2.78 v 0 c 1.2,-0.334 2.445,0.363 2.778,1.56 v 0 c 0.338,1.198 -0.358,2.44 -1.559,2.778 v 0 c -0.203,0.059 -0.411,0.082 -0.609,0.082 v 0 c -0.984,0 -1.889,-0.649 -2.166,-1.64 m 23.894,1.303 c -1.205,-0.307 -1.934,-1.533 -1.627,-2.735 v 0 c 0.306,-1.207 1.534,-1.938 2.736,-1.628 v 0 c 1.209,0.303 1.934,1.53 1.63,2.737 v 0 c -0.257,1.019 -1.177,1.696 -2.181,1.696 v 0 c -0.183,0 -0.374,-0.023 -0.558,-0.07" />
            </g>
          </g>
        </g>
      </g>
    </g>
  </g>
</svg>
